TITLE ""
FILE "2Q_t_0253-0270.mp3" MP3
  TRACK 01 AUDIO
    TITLE "2Q_t_0253-0270_01"
    INDEX 01 00:00:00
  TRACK 02 AUDIO
    TITLE "2Q_t_0253-0270_02"
    INDEX 01 00:00:14
  TRACK 03 AUDIO
    TITLE "2Q_t_0253-0270_03"
    INDEX 01 00:01:14
  TRACK 04 AUDIO
    TITLE "2Q_t_0253-0270_04"
    INDEX 01 00:01:65
  TRACK 05 AUDIO
    TITLE "2Q_t_0253-0270_05"
    INDEX 01 00:04:32
  TRACK 06 AUDIO
    TITLE "2Q_t_0253-0270_06"
    INDEX 01 00:05:02
  TRACK 07 AUDIO
    TITLE "2Q_t_0253-0270_07"
    INDEX 01 00:06:13
  TRACK 08 AUDIO
    TITLE "2Q_t_0253-0270_08"
    INDEX 01 00:06:60
  TRACK 09 AUDIO
    TITLE "2Q_t_0253-0270_09"
    INDEX 01 00:08:06
  TRACK 10 AUDIO
    TITLE "2Q_t_0253-0270_10"
    INDEX 01 00:08:51
  TRACK 11 AUDIO
    TITLE "2Q_t_0253-0270_11"
    INDEX 01 00:10:24
  TRACK 12 AUDIO
    TITLE "2Q_t_0253-0270_12"
    INDEX 01 00:10:67
  TRACK 13 AUDIO
    TITLE "2Q_t_0253-0270_13"
    INDEX 01 00:12:33
  TRACK 14 AUDIO
    TITLE "2Q_t_0253-0270_14"
    INDEX 01 00:13:03
  TRACK 15 AUDIO
    TITLE "2Q_t_0253-0270_15"
    INDEX 01 00:14:40
  TRACK 16 AUDIO
    TITLE "2Q_t_0253-0270_16"
    INDEX 01 00:15:20
  TRACK 17 AUDIO
    TITLE "2Q_t_0253-0270_17"
    INDEX 01 00:18:16
  TRACK 18 AUDIO
    TITLE "2Q_t_0253-0270_18"
    INDEX 01 00:18:59
  TRACK 19 AUDIO
    TITLE "2Q_t_0253-0270_19"
    INDEX 01 00:19:64
  TRACK 20 AUDIO
    TITLE "2Q_t_0253-0270_20"
    INDEX 01 00:20:38
  TRACK 21 AUDIO
    TITLE "2Q_t_0253-0270_21"
    INDEX 01 00:22:49
  TRACK 22 AUDIO
    TITLE "2Q_t_0253-0270_22"
    INDEX 01 00:23:19
  TRACK 23 AUDIO
    TITLE "2Q_t_0253-0270_23"
    INDEX 01 00:24:52
  TRACK 24 AUDIO
    TITLE "2Q_t_0253-0270_24"
    INDEX 01 00:25:22
  TRACK 25 AUDIO
    TITLE "2Q_t_0253-0270_25"
    INDEX 01 00:27:56
  TRACK 26 AUDIO
    TITLE "2Q_t_0253-0270_26"
    INDEX 01 00:28:26
  TRACK 27 AUDIO
    TITLE "2Q_t_0253-0270_27"
    INDEX 01 00:29:20
  TRACK 28 AUDIO
    TITLE "2Q_t_0253-0270_28"
    INDEX 01 00:30:02
  TRACK 29 AUDIO
    TITLE "2Q_t_0253-0270_29"
    INDEX 01 00:32:14
  TRACK 30 AUDIO
    TITLE "2Q_t_0253-0270_30"
    INDEX 01 00:32:57
  TRACK 31 AUDIO
    TITLE "2Q_t_0253-0270_31"
    INDEX 01 00:33:72
  TRACK 32 AUDIO
    TITLE "2Q_t_0253-0270_32"
    INDEX 01 00:34:44
  TRACK 33 AUDIO
    TITLE "2Q_t_0253-0270_33"
    INDEX 01 00:37:60
  TRACK 34 AUDIO
    TITLE "2Q_t_0253-0270_34"
    INDEX 01 00:38:30
  TRACK 35 AUDIO
    TITLE "2Q_t_0253-0270_35"
    INDEX 01 00:39:51
  TRACK 36 AUDIO
    TITLE "2Q_t_0253-0270_36"
    INDEX 01 00:40:22
  TRACK 37 AUDIO
    TITLE "2Q_t_0253-0270_37"
    INDEX 01 00:43:49
  TRACK 38 AUDIO
    TITLE "2Q_t_0253-0270_38"
    INDEX 01 00:44:19
  TRACK 39 AUDIO
    TITLE "2Q_t_0253-0270_39"
    INDEX 01 00:45:46
  TRACK 40 AUDIO
    TITLE "2Q_t_0253-0270_40"
    INDEX 01 00:46:22
  TRACK 41 AUDIO
    TITLE "2Q_t_0253-0270_41"
    INDEX 01 00:47:39
  TRACK 42 AUDIO
    TITLE "2Q_t_0253-0270_42"
    INDEX 01 00:48:07
  TRACK 43 AUDIO
    TITLE "2Q_t_0253-0270_43"
    INDEX 01 00:49:19
  TRACK 44 AUDIO
    TITLE "2Q_t_0253-0270_44"
    INDEX 01 00:49:73
  TRACK 45 AUDIO
    TITLE "2Q_t_0253-0270_45"
    INDEX 01 00:53:69
  TRACK 46 AUDIO
    TITLE "2Q_t_0253-0270_46"
    INDEX 01 00:54:39
  TRACK 47 AUDIO
    TITLE "2Q_t_0253-0270_47"
    INDEX 01 00:55:62
  TRACK 48 AUDIO
    TITLE "2Q_t_0253-0270_48"
    INDEX 01 00:56:34
  TRACK 49 AUDIO
    TITLE "2Q_t_0253-0270_49"
    INDEX 01 00:57:59
  TRACK 50 AUDIO
    TITLE "2Q_t_0253-0270_50"
    INDEX 01 00:58:27
  TRACK 51 AUDIO
    TITLE "2Q_t_0253-0270_51"
    INDEX 01 00:59:48
  TRACK 52 AUDIO
    TITLE "2Q_t_0253-0270_52"
    INDEX 01 01:00:20
  TRACK 53 AUDIO
    TITLE "2Q_t_0253-0270_53"
    INDEX 01 01:01:28
  TRACK 54 AUDIO
    TITLE "2Q_t_0253-0270_54"
    INDEX 01 01:01:73
  TRACK 55 AUDIO
    TITLE "2Q_t_0253-0270_55"
    INDEX 01 01:03:27
  TRACK 56 AUDIO
    TITLE "2Q_t_0253-0270_56"
    INDEX 01 01:04:01
  TRACK 57 AUDIO
    TITLE "2Q_t_0253-0270_57"
    INDEX 01 01:06:48
  TRACK 58 AUDIO
    TITLE "2Q_t_0253-0270_58"
    INDEX 01 01:07:18
  TRACK 59 AUDIO
    TITLE "2Q_t_0253-0270_59"
    INDEX 01 01:08:43
  TRACK 60 AUDIO
    TITLE "2Q_t_0253-0270_60"
    INDEX 01 01:09:19
  TRACK 61 AUDIO
    TITLE "2Q_t_0253-0270_61"
    INDEX 01 01:12:55
  TRACK 62 AUDIO
    TITLE "2Q_t_0253-0270_62"
    INDEX 01 01:13:25
  TRACK 63 AUDIO
    TITLE "2Q_t_0253-0270_63"
    INDEX 01 01:14:34
  TRACK 64 AUDIO
    TITLE "2Q_t_0253-0270_64"
    INDEX 01 01:15:04
  TRACK 65 AUDIO
    TITLE "2Q_t_0253-0270_65"
    INDEX 01 01:17:07
  TRACK 66 AUDIO
    TITLE "2Q_t_0253-0270_66"
    INDEX 01 01:17:52
  TRACK 67 AUDIO
    TITLE "2Q_t_0253-0270_67"
    INDEX 01 01:19:06
  TRACK 68 AUDIO
    TITLE "2Q_t_0253-0270_68"
    INDEX 01 01:19:53
  TRACK 69 AUDIO
    TITLE "2Q_t_0253-0270_69"
    INDEX 01 01:21:56
  TRACK 70 AUDIO
    TITLE "2Q_t_0253-0270_70"
    INDEX 01 01:22:26
  TRACK 71 AUDIO
    TITLE "2Q_t_0253-0270_71"
    INDEX 01 01:23:39
  TRACK 72 AUDIO
    TITLE "2Q_t_0253-0270_72"
    INDEX 01 01:24:11
  TRACK 73 AUDIO
    TITLE "2Q_t_0253-0270_73"
    INDEX 01 01:25:26
